<?xml version="1.0" encoding="iso-8859-1"?>
<!-- Generator: Adobe Illustrator 19.0.0, SVG Export Plug-In . SVG Version: 6.00 Build 0)  -->
<svg version="1.1" id="Capa_1" xmlns="http://www.w3.org/2000/svg" xmlns:xlink="http://www.w3.org/1999/xlink" x="0px" y="0px"
	 viewBox="0 0 512 512" style="enable-background:new 0 0 512 512;" xml:space="preserve">
<path style="fill:#364061;" d="M478.156,259.471L256,157.071l-222.156,102.4l-6.942-15.62l225.627-104.136
	c2.603-0.868,5.207-0.868,6.942,0l225.627,104.136L478.156,259.471z"/>
<g style="opacity:0.3;enable-background:new    ;">
	<path d="M276.827,147.525h-33.844c-1.736,0-3.471,0-5.207-0.868l-17.356,7.81c5.207,5.207,12.149,9.546,19.959,10.414l16.488-7.81
		l16.488,7.81h8.678v-14.753L276.827,147.525z"/>
</g>
<path style="fill:#364061;" d="M242.983,112.814H256c5.207,0,8.678-3.471,8.678-8.678V78.102h8.678c5.207,0,8.678-3.471,8.678-8.678
	V8.678c0-5.207-3.471-8.678-8.678-8.678h-34.712c-5.207,0-8.678,3.471-8.678,8.678v60.746c0,5.207,3.471,8.678,8.678,8.678h8.678
	v17.356h-4.339c-16.488,0-30.373,13.885-30.373,30.373s13.885,30.373,30.373,30.373h39.051v-17.356h-39.051
	c-6.942,0-13.017-6.075-13.017-13.017C229.966,118.888,236.041,112.814,242.983,112.814z"/>
<g>
	<path style="fill:#7E3B04;" d="M4.339,242.983V512h503.322V242.983H4.339z M472.949,477.288H39.051V286.373h433.898V477.288z"/>
	<path style="fill:#7E3B04;" d="M39.051,477.288h433.898V286.373H39.051V477.288z"/>
</g>
<g style="opacity:0.3;enable-background:new    ;">
	<path d="M39.051,477.288h433.898V286.373H39.051V477.288z"/>
</g>
<g>
	<rect x="73.763" y="312.407" style="fill:#7E3B04;" width="17.356" height="138.847"/>
	<rect x="108.475" y="312.407" style="fill:#7E3B04;" width="17.356" height="138.847"/>
	<rect x="143.186" y="312.407" style="fill:#7E3B04;" width="17.356" height="138.847"/>
	<rect x="177.898" y="312.407" style="fill:#7E3B04;" width="17.356" height="138.847"/>
	<rect x="212.61" y="312.407" style="fill:#7E3B04;" width="17.356" height="138.847"/>
	<rect x="247.322" y="312.407" style="fill:#7E3B04;" width="17.356" height="138.847"/>
	<rect x="282.034" y="312.407" style="fill:#7E3B04;" width="17.356" height="138.847"/>
	<rect x="316.746" y="312.407" style="fill:#7E3B04;" width="17.356" height="138.847"/>
	<rect x="351.458" y="312.407" style="fill:#7E3B04;" width="17.356" height="138.847"/>
	<rect x="386.169" y="312.407" style="fill:#7E3B04;" width="17.356" height="138.847"/>
	<rect x="420.881" y="312.407" style="fill:#7E3B04;" width="17.356" height="138.847"/>
</g>
<g>
</g>
<g>
</g>
<g>
</g>
<g>
</g>
<g>
</g>
<g>
</g>
<g>
</g>
<g>
</g>
<g>
</g>
<g>
</g>
<g>
</g>
<g>
</g>
<g>
</g>
<g>
</g>
<g>
</g>
</svg>
