<svg height="512pt" viewBox="0 0 512.00225 512" width="512pt" xmlns="http://www.w3.org/2000/svg"><path d="m456.882812 0h-194.308593c-3.976563 0-7.792969 1.582031-10.605469 4.394531l-235.855469 235.847657c-21.484375 21.492187-21.484375 56.457031.003907 77.941406l177.695312 177.695312c10.375 10.375 24.214844 16.089844 38.96875 16.09375 14.753906 0 28.59375-5.71875 38.972656-16.097656l235.847656-235.851562c2.8125-2.8125 4.394532-6.625 4.394532-10.605469l.003906-194.304688c-.003906-30.390625-24.730469-55.113281-55.117188-55.113281zm-54.378906 154.929688c-12.546875 12.550781-32.890625 12.550781-45.4375 0-12.550781-12.546876-12.550781-32.890626 0-45.4375 12.546875-12.550782 32.890625-12.550782 45.4375 0 12.550782 12.546874 12.550782 32.890624 0 45.4375zm0 0" fill="#ff9f00"/><path d="m495.835938 16.160156-93.332032 93.328125v.003907c12.550782 12.546874 12.550782 32.890624 0 45.4375-12.546875 12.550781-32.890625 12.550781-45.4375 0 0 0 0 0-.003906 0l-252.097656 252.101562 88.847656 88.847656c10.378906 10.375 24.214844 16.089844 38.96875 16.09375h.003906c14.75 0 28.589844-5.71875 38.96875-16.097656l235.847656-235.851562c2.8125-2.8125 4.394532-6.625 4.394532-10.605469l.007812-194.304688c-.003906-15.195312-6.1875-28.976562-16.167968-38.953125zm0 0" fill="#ff641a"/></svg>