<?xml version="1.0" ?><svg enable-background="new 0 0 512 512" id="Layer_1" version="1.1" viewBox="0 0 512 512" xml:space="preserve" xmlns="http://www.w3.org/2000/svg" xmlns:xlink="http://www.w3.org/1999/xlink"><g><g><linearGradient gradientUnits="userSpaceOnUse" id="SVGID_1_" x1="0.0000038" x2="512" y1="256" y2="256"><stop offset="0" style="stop-color:#E24263"/><stop offset="1" style="stop-color:#DD1E47"/></linearGradient><circle cx="256" cy="256" fill="url(#SVGID_1_)" r="256"/><linearGradient gradientUnits="userSpaceOnUse" id="SVGID_2_" x1="42.6666679" x2="469.3333435" y1="256.0010681" y2="256.0010681"><stop offset="0" style="stop-color:#DD1E47"/><stop offset="1" style="stop-color:#E24263"/></linearGradient><path d="M256,469.3344116c-117.6309357,0-213.3333282-95.7024231-213.3333282-213.3333435    c0-117.6314697,95.7023926-213.3333435,213.3333282-213.3333435c117.636261,0,213.3333435,95.7018661,213.3333435,213.3333435    C469.3333435,373.6319885,373.636261,469.3344116,256,469.3344116z" fill="url(#SVGID_2_)"/></g><g><rect height="9.7872" opacity="0.3" width="112.5701294" x="271.4298706" y="144"/><rect height="9.7872" opacity="0.3" width="112.5701294" x="271.4298706" y="374.2112122"/><rect height="112.8933334" opacity="0.3" width="112.9952011" x="144" y="144.0218658"/><rect height="112.8933334" opacity="0.3" width="112.9952011" x="144" y="271.1066589"/><rect height="9.7872" opacity="0.3" width="112.5701294" x="271.4298706" y="316.659729"/><rect height="9.7872" opacity="0.3" width="112.5701294" x="271.4298706" y="259.1055908"/><rect height="9.7872" opacity="0.3" width="112.5701294" x="271.4298706" y="201.5541382"/></g><g><rect fill="#FFFFFF" height="9.7872" width="112.5701294" x="263.4298706" y="136"/><rect fill="#FFFFFF" height="9.7872" width="112.5701294" x="263.4298706" y="366.2112122"/><rect fill="#FFFFFF" height="112.8933334" width="112.9952011" x="136" y="136.0218658"/><rect fill="#FFFFFF" height="112.8933334" width="112.9952011" x="136" y="263.1066589"/><rect fill="#FFFFFF" height="9.7872" width="112.5701294" x="263.4298706" y="308.659729"/><rect fill="#FFFFFF" height="9.7872" width="112.5701294" x="263.4298706" y="251.1056061"/><rect fill="#FFFFFF" height="9.7872" width="112.5701294" x="263.4298706" y="193.5541382"/></g></g></svg>