<svg enable-background="new 0 0 100 100" height="512" viewBox="0 0 100 100" width="512" xmlns="http://www.w3.org/2000/svg"><path d="m44.8060379 7.2930236-28.7062645-.7367697c-1.4735403-.0428748-2.8828115.5221786-3.9200535 1.5594201l-4.2061596 4.2061596c-1.0371976 1.0371981-1.6094117 2.4536304-1.5665369 3.9271708l.7367702 28.7062606c.0357141 1.3663101.6008987 2.6753845 1.5665803 3.6410637l44.8370972 44.8370972c2.0887146 2.0887146 5.4794731 2.0887985 7.5682335.0000458l32.1756477-32.1756554c2.0888062-2.0888023 2.0887222-5.4795609 0-7.5682755l-44.8370943-44.8370971c-.9656792-.9656816-2.2747956-1.5308223-3.6482201-1.5594201zm-24.2497559 13.4053731c-1.5808563 1.5808563-4.1418037 1.5808563-5.722662 0-1.5809441-1.580946-1.5808573-4.1418056 0-5.7226629 1.5809021-1.5809002 4.1417179-1.5809441 5.722662 0 1.5808583 1.5808572 1.5809021 4.1417608 0 5.7226629z" fill="#ebf0f3"/><g fill="#4d5c7d"><path d="m51.849403 70.63707h1.661762v19.547358h-1.661762z" transform="matrix(.707 -.707 .707 .707 -41.429 60.802)"/><path d="m57.723187 65.178726h.830881v19.547358h-.830881z" transform="matrix(.707 -.707 .707 .707 -35.971 63.063)"/><path d="m54.143662 67.687897h2.971587v19.547358h-2.971587z" transform="matrix(.707 -.707 .707 .707 -38.48 62.024)"/><path d="m59.322727 63.16375h1.661762v19.547358h-1.661762z" transform="matrix(.707 -.707 .707 .707 -33.956 63.898)"/><path d="m65.19651 57.705402h.830881v19.547358h-.830881z" transform="matrix(.707 -.707 .707 .707 -28.498 66.159)"/><path d="m61.616985 60.214577h2.971587v19.547358h-2.971587z" transform="matrix(.707 -.707 .707 .707 -31.007 65.119)"/><path d="m66.796051 55.690426h1.661762v19.547358h-1.661762z" transform="matrix(.707 -.707 .707 .707 -26.483 66.993)"/><path d="m72.669838 50.232079h.830881v19.547358h-.830881z" transform="matrix(.707 -.707 .707 .707 -21.024 69.254)"/><path d="m69.090309 52.741253h2.971587v19.547358h-2.971587z" transform="matrix(.707 -.707 .707 .707 -23.533 68.215)"/><path d="m74.269371 48.217098h1.661762v19.547358h-1.661762z" transform="matrix(.707 -.707 .707 .707 -19.009 70.089)"/><path d="m80.143158 42.758755h.830881v19.547358h-.830881z" transform="matrix(.707 -.707 .707 .707 -13.551 72.35)"/><path d="m76.563637 45.267929h2.971587v19.547358h-2.971587z" transform="matrix(.707 -.707 .707 .707 -16.06 71.311)"/></g><path d="m13.1597662 13.3018799c-2.503665 2.503665-2.503665 6.5667057 0 9.0703697s6.5667067 2.5036659 9.0703707 0 2.5037079-6.5667486.0000439-9.0704136-6.5667496-2.5036211-9.0704146.0000439zm7.3965158 7.3965168c-1.5808563 1.5808563-4.1418037 1.5808563-5.722662 0-1.5809441-1.580946-1.5808573-4.1418056 0-5.7226629 1.5809021-1.5809002 4.1417179-1.5809441 5.722662 0 1.5808583 1.5808572 1.5809021 4.1417608 0 5.7226629z" fill="#e56353"/><path d="m5.6769214 5.5348296c-.7131934.7131934-.7130623 1.8695402 0 2.582603l10.4110947 10.4110956c.71315.71315 1.8694096.713192 2.5826035 0 .71315-.71315.71315-1.8694534 0-2.5826035l-10.4110953-10.4110951c-.7130627-.7130623-1.8694529-.71315-2.5826029 0z" fill="#27a2db"/><path d="m47.8066292 35.0055847c-.6573601-.0911636-1.3290672-.0431671-2.0055771.1343307-.5134239.1295547-1.0267906.3358955-1.540184.6189346.3694305-1.0795288.4366379-2.0871353.2159195-3.0275612-.2254944-.9355965-.666935-1.7320881-1.3290672-2.3942204-.7052994-.7052975-1.5833778-1.1802998-2.6341209-1.425005-1.0507736-.2446747-2.0871391-.1679192-3.1091232.2302971-.7772827.2974758-1.5929527.8252792-2.4565964 1.5737724l-1.9192162-1.9192181-2.0247898 2.0247898 1.8904285 1.8904305-1.0219841 1.0219841-1.8904305-1.8904285-2.0199566 2.0199566 1.8904305 1.8904305-.8588696.8588676-.0048027-.0048027-2.2598591 2.259861 1.8136463 1.8136444 1.5929527-1.5929527 11.7744141 11.7744141-1.5929527 1.5929527 1.8136444 1.8136444 1.5929565-1.5929527.0048027.0048027 1.5257721-1.5257759 1.8952332 1.8952332 2.0199585-2.0199547-1.8952332-1.8952332 1.0219841-1.0219879 1.8952332 1.8952332 2.0247879-2.0247879-1.9096107-1.9096107c.6381187-.7052994 1.1467094-1.3770676 1.5209732-2.0103836.503788-.8396835.81567-1.6601334.9260178-2.442215.1103439-.7820816.0095749-1.6409225-.3070831-2.5621376-.3118553-.9260178-.8300514-1.751297-1.5497589-2.4710045-.8972322-.897232-1.9288217-1.4202003-3.0899392-1.5833473zm-15.6224251 2.0535469 3.075531-3.0755348c1.1083488-1.108345 1.9624138-1.8184471 2.5573654-2.1255283.5997543-.3118839 1.2138901-.3982449 1.8472328-.2543106.6333466.1439362 1.2091179.4702015 1.7225113.9835949.5373802.5373764.8540382 1.1131477.9500046 1.7368889.0911942.6189651-.0383644 1.2666893-.403019 1.938427-.2734947.5133934-.8636436 1.2186928-1.7656784 2.1207275l-3.3298416 3.3298416zm17.5896111 3.2435112c.1727219.5757408.2015381 1.1227264.0767555 1.6313171-.1199226.5133934-.3694305 1.0411644-.7532654 1.5977249-.2206917.3166885-.6573296.8012962-1.3146591 1.4586258l-3.8336334 3.8336296-5.2922554-5.2922554 3.5601387-3.5601387c.9787903-.9787903 1.8184509-1.6457253 2.5093994-2.0007744.4173965-.2063141.8348236-.3262634 1.2618866-.3694611.2830658-.0239525.5661659-.0095749.8588371.0431976.7149048.1295547 1.3626289.479805 1.9384003 1.0555725.4894104.4894106.8156738 1.0267603.9883957 1.6025621z" fill="#44c4a1"/></svg>