<?xml version="1.0" ?><!DOCTYPE svg  PUBLIC '-//W3C//DTD SVG 1.1//EN'  'http://www.w3.org/Graphics/SVG/1.1/DTD/svg11.dtd'><svg height="512px" id="Layer_1" style="enable-background:new 0 0 512 512;" version="1.1" viewBox="0 0 512 512" width="512px" xml:space="preserve" xmlns="http://www.w3.org/2000/svg" xmlns:xlink="http://www.w3.org/1999/xlink"><g><path d="M512,255.999C512,114.483,397.429,0,256.202,0   C114.579,0,0,114.483,0,255.999C0,397.118,114.579,512,256.202,512C397.429,512,512,397.118,512,255.999L512,255.999z" style="fill-rule:evenodd;clip-rule:evenodd;fill:#84DBFF;"/><polygon points="122.531,91.824 389.078,91.824 389.078,349.815    319.453,420.172 122.531,420.172  " style="fill-rule:evenodd;clip-rule:evenodd;fill:#FEFEFE;"/><path d="M274.898,315.229l-10.74-25.836h-50.127l-10.74,25.836h-28.243   l50.92-118.857h25.855l51.318,118.857H274.898z M298.368,256.794v-22.261h-21.884v-15.504h21.884v-22.657h17.109v22.657h21.882   v15.504h-21.882v22.261H298.368z M239.093,231.752l-15.119,34.987h29.839L239.093,231.752z" style="fill-rule:evenodd;clip-rule:evenodd;fill:#FD8469;"/><path d="M319.453,420.172l69.625-70.356h-56.496   c-7.163,0-13.129,5.966-13.129,13.124V420.172z" style="fill-rule:evenodd;clip-rule:evenodd;fill:#E6E9EE;"/></g></svg>